PathFileType	4	(X/Y/Z)	 s09c0203.trc
DataRate	CameraRate	NumFrames	NumMarkers	Units	OrigDataRate	OrigDataStartFrame	OrigNumFrames
200	200	7	50	mm	200	1751	2000
Frame#	Time	racr			lacr			c7			jug			rlel			rdr			llel			ldr			s2			lic			ric			lasi			rasi			rpsi			lpsi			rgt			lgt			rth1			rth2			rth3			rth4			rlfc			rmfc			rsh1			rsh2			rsh3			rsh4			rlmal			rmmal			rcal			rtoe			rmt5			lth1			lth2			lth4			lth3			llfc			lmfc			llmal			lmmal			lcal			lmt5			lsh1			lsh2			lsh3			lsh4			ltoe			SBIKE			LBIKE			RBIKE			
		X1	Y1	Z1	X2	Y2	Z2	X3	Y3	Z3	X4	Y4	Z4	X5	Y5	Z5	X6	Y6	Z6	X7	Y7	Z7	X8	Y8	Z8	X9	Y9	Z9	X10	Y10	Z10	X11	Y11	Z11	X12	Y12	Z12	X13	Y13	Z13	X14	Y14	Z14	X15	Y15	Z15	X16	Y16	Z16	X17	Y17	Z17	X18	Y18	Z18	X19	Y19	Z19	X20	Y20	Z20	X21	Y21	Z21	X22	Y22	Z22	X23	Y23	Z23	X24	Y24	Z24	X25	Y25	Z25	X26	Y26	Z26	X27	Y27	Z27	X28	Y28	Z28	X29	Y29	Z29	X30	Y30	Z30	X31	Y31	Z31	X32	Y32	Z32	X33	Y33	Z33	X34	Y34	Z34	X35	Y35	Z35	X36	Y36	Z36	X37	Y37	Z37	X38	Y38	Z38	X39	Y39	Z39	X40	Y40	Z40	X41	Y41	Z41	X42	Y42	Z42	X43	Y43	Z43	X44	Y44	Z44	X45	Y45	Z45	X46	Y46	Z46	X47	Y47	Z47	X48	Y48	Z48	X49	Y49	Z49	X50	Y50	Z50	
1751	8.7550	454.759289	1197.027821	-16.819942	554.937258	1182.381310	-351.767181	506.049294	1275.940143	-179.030194	463.436008	1133.635845	-192.011556	454.627106	968.888019	83.320122	676.254025	900.970691	-5.019238	473.350304	1026.526438	-572.428779	652.838020	894.613383	-484.761896	11.559632	1120.586245	-287.820719	163.493292	1111.245664	-417.085034	133.038564	1131.126308	-118.742529	197.576330	1056.727729	-385.158958	183.067410	1084.690483	-133.168286	30.715883	1153.179931	-226.483500	48.722639	1155.126997	-334.282537	120.007702	1019.938589	-71.529308	117.773826	967.385962	-446.915015	253.632911	969.875935	-74.283389	340.632231	962.298961	-81.406562	411.010587	908.588807	-80.455499	351.387876	987.264775	-107.359126	487.984053	831.124325	-106.804082	471.328700	808.339283	-205.416181	406.315807	772.355055	-76.047463	356.639028	698.918011	-88.385826	277.430202	661.458344	-85.811491	376.196276	680.403403	-117.424527	200.888601	593.675906	-83.903303	205.440610	601.585241	-160.779665	118.199983	610.751411	-117.379851	317.633709	437.230386	-132.124398	245.603346	476.455018	-64.832335	183.987309	844.574979	-443.995681	242.300892	783.964032	-431.121929	273.321252	800.770455	-416.758913	263.010659	696.106417	-421.325050	296.118621	608.400468	-401.039647	294.922163	591.988136	-304.328605	249.373807	245.454445	-421.024660	262.891354	253.347101	-349.890227	184.565492	204.254715	-380.203887	358.689145	160.355204	-432.358442	273.900244	510.433486	-429.187274	288.563526	425.528881	-422.737882	257.960358	341.957331	-423.034309	313.907012	424.849273	-391.646886	443.715023	185.334183	-361.103220	-65.427471	850.976110	-240.732829	20.962459	84.490049	-442.237891	21.053901	84.137158	-43.933302	
1752	8.7600	448.426862	1198.338082	-12.020895	556.442550	1181.825121	-348.491340	506.145668	1275.602049	-176.944213	463.731863	1133.259897	-189.922208	453.131061	968.192511	84.238511	675.416631	900.590623	-3.714678	475.737655	1028.713156	-571.164717	653.768225	894.525657	-485.917439	11.708525	1120.106042	-290.528696	165.476462	1109.348517	-417.259315	132.674937	1132.733221	-120.192580	198.898664	1055.148361	-385.025570	182.908090	1086.500189	-133.761737	30.772033	1153.416089	-228.663342	50.077385	1154.793502	-336.332601	120.221762	1023.108484	-71.291140	119.007402	965.554063	-448.067794	254.096440	975.933855	-74.854186	341.223427	969.963037	-82.269210	412.572291	917.523782	-80.295563	351.331542	994.883633	-108.510140	491.335777	841.079741	-105.938526	475.634036	817.305799	-204.834886	410.821195	780.972239	-75.701628	361.937729	706.619152	-88.086282	283.438706	667.364275	-85.662897	381.711694	688.086247	-117.243917	207.997996	597.555065	-83.732401	212.728898	605.693178	-160.589950	124.830734	612.831538	-117.089982	327.959843	443.807605	-132.188161	255.215926	481.381777	-64.860585	182.896834	843.392423	-445.003490	239.983344	781.577290	-432.108656	271.209279	797.995641	-416.982356	259.281642	693.569776	-422.642474	290.623916	605.028262	-401.532517	289.451541	588.775162	-304.856480	241.374412	243.116071	-421.179116	255.224542	250.736733	-350.178511	175.866449	202.966100	-380.077764	349.163582	155.997129	-432.149583	267.934858	507.697504	-429.375706	281.925208	422.730780	-422.803351	250.717042	339.415985	-423.229754	307.166242	421.878780	-391.588243	434.710127	179.573091	-360.995256	-65.406356	851.003102	-240.671631	20.972331	84.505005	-442.242896	21.047129	84.136411	-43.935536	
1753	8.7650	446.959764	1198.193826	-10.241731	557.952608	1181.232067	-345.297913	506.239725	1275.273740	-174.913595	463.824922	1132.773477	-187.798214	451.640243	967.693251	85.080603	674.562680	900.196038	-2.707652	477.423564	1030.784249	-569.481940	654.718208	894.268214	-487.469933	12.572711	1120.847098	-291.195074	167.390233	1107.554041	-417.273101	132.488076	1134.385138	-121.383621	200.205079	1053.609211	-384.885155	182.597937	1087.988927	-134.478021	31.115043	1153.718224	-230.518574	51.942633	1154.293424	-337.038088	120.833002	1026.234891	-70.966554	120.194089	963.961820	-449.186840	254.671572	981.870964	-75.357359	341.734462	977.258401	-83.135865	414.613201	926.088253	-80.250108	351.324045	1001.833523	-109.884194	494.400167	850.440248	-105.178181	479.501813	825.784549	-204.370443	414.770281	788.814779	-75.647352	367.389635	713.700870	-87.490438	289.560219	673.048809	-85.393924	387.673294	695.402372	-116.294725	214.967698	600.753783	-83.608008	219.771288	609.133018	-160.301518	131.425424	614.443322	-116.424834	338.381433	449.910063	-132.287436	265.032516	485.637774	-64.957969	182.018860	842.521898	-445.887875	238.043821	779.805802	-432.971625	269.331531	795.677257	-417.318617	255.844964	691.451658	-423.790864	285.607538	602.403357	-401.883128	284.665949	586.205468	-305.062933	232.972250	241.314739	-421.188147	247.440388	248.763413	-350.373972	166.916431	202.119494	-379.869816	339.415785	152.337954	-432.085436	262.464652	505.683346	-429.413530	275.523370	420.607514	-422.786480	243.478251	337.597919	-423.372582	300.781783	419.721444	-391.806235	425.274240	174.372640	-360.651311	-65.383249	851.007965	-240.628041	20.957422	84.524299	-442.242291	21.044537	84.130711	-43.942921	
1754	8.7700	445.458338	1198.160943	-8.441471	559.315126	1180.689704	-342.304666	506.331321	1274.956161	-172.943372	464.170456	1132.502078	-185.820059	450.103184	967.048971	85.801965	673.794337	899.968399	-1.947354	478.830493	1032.577936	-567.919012	655.662293	893.753770	-489.279857	12.615728	1120.997515	-292.831283	169.211915	1106.050313	-417.267820	132.374391	1135.974505	-122.444234	201.516730	1052.323817	-384.736172	182.326656	1089.421677	-134.898778	31.223788	1154.403621	-231.998880	52.537792	1153.784386	-338.752286	121.784094	1029.339328	-70.472954	121.294299	962.627540	-450.271562	255.125173	987.522460	-75.789998	342.185373	984.047674	-83.944601	415.871009	934.129331	-80.559428	351.339881	1007.116638	-111.806259	496.805472	859.273438	-104.477416	483.294776	833.967806	-204.855406	418.291740	796.265320	-74.997662	372.416549	720.049702	-86.990348	295.696827	677.371614	-85.302432	393.002017	702.082470	-115.525581	222.007773	603.245607	-83.353310	226.536321	611.762127	-160.005664	138.059830	614.850774	-116.699104	348.938066	455.656624	-132.491890	274.719428	489.477158	-64.939177	181.272744	842.008703	-446.695528	236.362692	778.466505	-433.665806	267.690683	793.897014	-417.601879	252.812063	689.758657	-424.548419	281.038830	600.426131	-402.102124	280.734999	584.388955	-304.882462	224.345603	239.996639	-421.198546	239.555631	247.428905	-350.458936	157.779818	201.835402	-379.661398	329.484782	149.384642	-431.902860	257.475551	504.245336	-429.321917	269.344130	419.028642	-422.647281	236.219873	336.463825	-423.352911	294.418356	417.599508	-391.304834	415.645970	169.947921	-360.456768	-65.386498	851.007904	-240.576445	20.957784	84.537890	-442.233665	21.039269	84.149530	-43.954778	
1755	8.7750	444.049155	1198.177117	-6.628906	560.528612	1180.213469	-339.588383	506.420309	1274.650257	-171.038579	464.447484	1132.153229	-183.891026	448.761532	966.532680	86.398145	672.988776	899.910046	-1.212322	480.048179	1034.239786	-566.423771	656.376549	893.370600	-490.718548	17.268112	1118.163287	-290.963642	170.908382	1104.796248	-417.198711	132.374256	1137.580625	-123.287656	202.758911	1051.349520	-384.607271	182.123333	1090.681858	-135.148980	31.768877	1155.323972	-232.944798	53.942403	1153.944752	-339.537549	122.856831	1032.398643	-70.001204	122.408015	961.810334	-451.009234	255.548437	992.693779	-76.202250	342.491619	990.375760	-84.630908	416.913919	941.383755	-80.810272	351.253889	1013.137556	-112.906990	498.112854	868.389281	-103.660011	486.698960	842.303083	-204.372134	421.086238	802.789821	-74.935004	376.904648	725.574631	-86.818827	301.142481	681.243260	-84.982519	397.504223	708.159577	-115.042615	228.640549	604.984900	-83.237068	233.054022	613.658843	-159.726623	144.124002	614.095364	-116.440347	359.615401	461.171359	-132.738457	284.564439	492.786748	-65.054315	180.745876	841.889788	-447.368234	234.930349	777.680011	-434.187418	266.423835	792.662782	-417.780787	250.181417	688.734516	-425.061003	277.104859	599.164719	-401.982233	277.597348	583.158309	-304.595333	215.681594	239.423321	-421.151943	231.587011	246.734973	-350.415731	148.538094	202.306958	-379.381578	319.261026	147.094789	-431.794125	252.964784	503.372422	-429.074990	263.486522	417.891369	-422.313686	229.127803	335.869563	-423.237935	288.472325	415.994916	-390.886483	405.859303	166.236029	-360.346945	-65.412378	851.020025	-240.530161	20.959263	84.556758	-442.233038	21.043773	84.143401	-43.946575	
1756	8.7800	446.688318	1196.682237	-7.063747	561.606566	1179.764398	-336.961700	506.506546	1274.356975	-169.204246	464.633019	1131.781185	-181.972717	447.440911	966.104390	86.922180	672.380139	899.799139	-0.649591	481.096394	1035.631184	-564.893594	656.860540	892.869151	-491.569629	17.740651	1118.608114	-291.807990	172.350928	1103.971466	-417.132533	132.472675	1139.167120	-123.459227	203.426702	1051.068251	-384.336762	181.882268	1091.743289	-135.398429	32.146537	1156.263616	-233.664475	54.862600	1154.200536	-340.505129	123.964191	1035.288060	-69.546482	123.289861	961.688527	-451.245337	255.759242	997.502025	-76.537475	342.589562	996.149318	-85.018923	417.729990	947.879768	-80.983868	351.181018	1018.458853	-113.792447	499.643843	875.532265	-103.266996	488.484661	849.124198	-204.287850	423.344689	807.941578	-74.761276	380.993708	729.945134	-86.551659	306.187040	684.127138	-84.599336	402.059980	712.832394	-114.690478	234.972287	605.933993	-83.132751	239.341196	614.886795	-159.511426	150.213974	612.459676	-116.326902	370.491893	465.974637	-133.217786	294.422396	495.431219	-65.114988	180.432976	842.127172	-447.726085	233.857738	777.272738	-434.388605	265.424189	791.969306	-417.842066	248.032507	688.229723	-425.186452	273.827760	598.487683	-401.544509	275.460145	582.509099	-303.855267	206.906323	239.535913	-420.975328	223.551266	246.683382	-350.226685	139.202616	203.397248	-379.059326	310.359755	144.308738	-430.821102	249.072484	502.809738	-428.542031	257.971611	417.196674	-421.681229	222.185893	335.771631	-422.907117	282.871213	414.795949	-390.287266	395.890436	163.095614	-360.218591	-65.418470	851.026447	-240.481145	20.955380	84.577031	-442.243907	21.030841	84.153037	-43.953729	
1757	8.7850	445.684004	1196.751996	-5.457040	562.523898	1179.363655	-334.577407	506.589886	1274.077259	-167.445408	465.002018	1131.599734	-180.219150	446.129690	965.777387	87.073536	672.022115	899.672224	-0.463626	481.912529	1036.714994	-563.395302	657.269183	892.243426	-491.760606	16.284246	1122.706019	-294.252986	173.545547	1103.599171	-417.010893	132.614783	1140.693757	-123.950553	204.312715	1050.721640	-383.983578	181.627027	1092.946419	-135.683610	32.512748	1157.493894	-234.065235	54.842433	1155.149797	-340.887424	125.088638	1038.128645	-69.070482	124.024902	962.004444	-451.049654	255.888706	1001.726746	-76.801229	342.722179	1000.961768	-85.515798	418.222727	953.380559	-80.858945	351.096500	1023.073980	-114.391928	500.745702	881.689737	-102.661786	490.113953	855.034409	-204.110644	424.902850	812.625670	-74.748547	384.638497	733.265608	-86.437760	310.924905	685.690294	-84.363027	406.170417	716.621244	-114.285356	241.204691	605.914071	-82.924714	245.362763	615.100396	-159.235505	156.107611	609.710860	-116.068148	380.771689	470.571709	-133.124756	304.230613	497.354369	-65.093141	180.295889	842.610247	-447.696384	233.069261	777.320689	-434.323828	264.899518	791.696197	-417.880140	246.383982	688.152065	-425.109543	271.352067	598.156286	-400.783706	274.097772	582.255508	-302.964416	198.203159	240.257261	-420.769434	215.465136	247.275895	-349.874125	129.909899	205.189926	-378.724034	299.575971	143.770373	-430.900698	245.806597	502.726339	-427.733034	252.910774	416.920008	-420.847117	215.507720	336.277555	-422.386809	277.690247	414.128450	-389.426395	386.005489	160.777989	-360.235532	-65.300412	850.972287	-240.514569	20.946880	84.584764	-442.249890	21.025378	84.146004	-43.921723	
